<?xml version="1.0" encoding="UTF-8" standalone="no"?>
<!DOCTYPE svg PUBLIC "-//W3C//DTD SVG 1.1//EN"
 "http://www.w3.org/Graphics/SVG/1.1/DTD/svg11.dtd">
<!-- Generated by graphviz version 2.38.0 (20140413.2041)
 -->
<!-- Title: %3 Pages: 1 -->
<svg width="634pt" height="332pt"
 viewBox="0.00 0.00 634.17 332.00" xmlns="http://www.w3.org/2000/svg" xmlns:xlink="http://www.w3.org/1999/xlink">
<g id="graph0" class="graph" transform="scale(1 1) rotate(0) translate(4 328)">
<title>%3</title>
<polygon fill="white" stroke="none" points="-4,4 -4,-328 630.173,-328 630.173,4 -4,4"/>
<!-- [root] azurerm_resource_group.rg -->
<g id="node1" class="node"><title>[root] azurerm_resource_group.rg</title>
<polygon fill="none" stroke="black" points="427.684,-108 255.684,-108 255.684,-72 427.684,-72 427.684,-108"/>
<text text-anchor="middle" x="341.684" y="-86.3" font-family="Times New Roman,serif" font-size="14.00">azurerm_resource_group.rg</text>
</g>
<!-- [root] provider.azurerm -->
<g id="node3" class="node"><title>[root] provider.azurerm</title>
<polygon fill="none" stroke="black" points="341.684,-36 238.793,-18 341.684,-3.55271e-015 444.575,-18 341.684,-36"/>
<text text-anchor="middle" x="341.684" y="-14.3" font-family="Times New Roman,serif" font-size="14.00">provider.azurerm</text>
</g>
<!-- [root] azurerm_resource_group.rg&#45;&gt;[root] provider.azurerm -->
<g id="edge1" class="edge"><title>[root] azurerm_resource_group.rg&#45;&gt;[root] provider.azurerm</title>
<path fill="none" stroke="black" d="M341.684,-71.6966C341.684,-63.9827 341.684,-54.7125 341.684,-46.1124"/>
<polygon fill="black" stroke="black" points="345.184,-46.1043 341.684,-36.1043 338.184,-46.1044 345.184,-46.1043"/>
</g>
<!-- [root] azurerm_virtual_network.vnet -->
<g id="node2" class="node"><title>[root] azurerm_virtual_network.vnet</title>
<polygon fill="none" stroke="black" points="432.684,-180 250.684,-180 250.684,-144 432.684,-144 432.684,-180"/>
<text text-anchor="middle" x="341.684" y="-158.3" font-family="Times New Roman,serif" font-size="14.00">azurerm_virtual_network.vnet</text>
</g>
<!-- [root] azurerm_virtual_network.vnet&#45;&gt;[root] azurerm_resource_group.rg -->
<g id="edge2" class="edge"><title>[root] azurerm_virtual_network.vnet&#45;&gt;[root] azurerm_resource_group.rg</title>
<path fill="none" stroke="black" d="M341.684,-143.697C341.684,-135.983 341.684,-126.712 341.684,-118.112"/>
<polygon fill="black" stroke="black" points="345.184,-118.104 341.684,-108.104 338.184,-118.104 345.184,-118.104"/>
</g>
<!-- [root] meta.count&#45;boundary (EachMode fixup) -->
<g id="node4" class="node"><title>[root] meta.count&#45;boundary (EachMode fixup)</title>
<ellipse fill="none" stroke="black" cx="180.684" cy="-234" rx="180.868" ry="18"/>
<text text-anchor="middle" x="180.684" y="-230.3" font-family="Times New Roman,serif" font-size="14.00">[root] meta.count&#45;boundary (EachMode fixup)</text>
</g>
<!-- [root] meta.count&#45;boundary (EachMode fixup)&#45;&gt;[root] azurerm_virtual_network.vnet -->
<g id="edge3" class="edge"><title>[root] meta.count&#45;boundary (EachMode fixup)&#45;&gt;[root] azurerm_virtual_network.vnet</title>
<path fill="none" stroke="black" d="M219.247,-216.233C241.324,-206.635 269.237,-194.499 292.835,-184.239"/>
<polygon fill="black" stroke="black" points="294.541,-187.313 302.317,-180.116 291.75,-180.894 294.541,-187.313"/>
</g>
<!-- [root] provider.azurerm (close) -->
<g id="node5" class="node"><title>[root] provider.azurerm (close)</title>
<ellipse fill="none" stroke="black" cx="502.684" cy="-234" rx="123.478" ry="18"/>
<text text-anchor="middle" x="502.684" y="-230.3" font-family="Times New Roman,serif" font-size="14.00">[root] provider.azurerm (close)</text>
</g>
<!-- [root] provider.azurerm (close)&#45;&gt;[root] azurerm_virtual_network.vnet -->
<g id="edge4" class="edge"><title>[root] provider.azurerm (close)&#45;&gt;[root] azurerm_virtual_network.vnet</title>
<path fill="none" stroke="black" d="M465.343,-216.765C442.955,-207.031 414.244,-194.548 390.123,-184.061"/>
<polygon fill="black" stroke="black" points="391.352,-180.778 380.786,-180.001 388.561,-187.198 391.352,-180.778"/>
</g>
<!-- [root] root -->
<g id="node6" class="node"><title>[root] root</title>
<ellipse fill="none" stroke="black" cx="341.684" cy="-306" rx="49.2915" ry="18"/>
<text text-anchor="middle" x="341.684" y="-302.3" font-family="Times New Roman,serif" font-size="14.00">[root] root</text>
</g>
<!-- [root] root&#45;&gt;[root] meta.count&#45;boundary (EachMode fixup) -->
<g id="edge5" class="edge"><title>[root] root&#45;&gt;[root] meta.count&#45;boundary (EachMode fixup)</title>
<path fill="none" stroke="black" d="M311.022,-291.669C287.599,-281.485 254.895,-267.266 228.107,-255.619"/>
<polygon fill="black" stroke="black" points="229.47,-252.395 218.903,-251.617 226.678,-258.814 229.47,-252.395"/>
</g>
<!-- [root] root&#45;&gt;[root] provider.azurerm (close) -->
<g id="edge6" class="edge"><title>[root] root&#45;&gt;[root] provider.azurerm (close)</title>
<path fill="none" stroke="black" d="M372.346,-291.669C396.014,-281.378 429.157,-266.968 456.099,-255.254"/>
<polygon fill="black" stroke="black" points="457.569,-258.432 465.344,-251.235 454.778,-252.012 457.569,-258.432"/>
</g>
</g>
</svg>
